<svg xmlns="http://www.w3.org/2000/svg" width="25" height="28.571" viewBox="0 0 25 28.571">
  <path id="Icon_awesome-bell" data-name="Icon awesome-bell" d="M12.5,28.571A3.571,3.571,0,0,0,16.07,25H8.93A3.571,3.571,0,0,0,12.5,28.571Zm12.019-8.354c-1.078-1.158-3.1-2.9-3.1-8.61a8.812,8.812,0,0,0-7.139-8.658V1.786a1.785,1.785,0,1,0-3.569,0V2.949a8.812,8.812,0,0,0-7.139,8.658c0,5.709-2.017,7.451-3.1,8.61A1.744,1.744,0,0,0,0,21.429a1.787,1.787,0,0,0,1.791,1.786H23.209A1.787,1.787,0,0,0,25,21.429,1.743,1.743,0,0,0,24.519,20.217Z" transform="translate(0)" fill="#f7d667"/>
</svg>
