<svg xmlns="http://www.w3.org/2000/svg" width="30" height="18" viewBox="0 0 30 18">
  <path id="Icon_awesome-money-bill" data-name="Icon awesome-money-bill" d="M28.5,4.5H1.5A1.5,1.5,0,0,0,0,6V21a1.5,1.5,0,0,0,1.5,1.5h27A1.5,1.5,0,0,0,30,21V6A1.5,1.5,0,0,0,28.5,4.5ZM2.25,20.25v-3a3,3,0,0,1,3,3Zm0-10.5v-3h3A3,3,0,0,1,2.25,9.75ZM15,18c-2.071,0-3.75-2.015-3.75-4.5S12.929,9,15,9s3.75,2.015,3.75,4.5S17.07,18,15,18Zm12.75,2.25h-3a3,3,0,0,1,3-3Zm0-10.5a3,3,0,0,1-3-3h3Z" transform="translate(0 -4.5)" fill="#f7d667"/>
</svg>
