<svg xmlns="http://www.w3.org/2000/svg" width="27.5" height="31.429" viewBox="0 0 27.5 31.429">
  <path id="Icon_awesome-building" data-name="Icon awesome-building" d="M26.763,29.464H25.536V1.473A1.473,1.473,0,0,0,24.063,0H3.438A1.473,1.473,0,0,0,1.964,1.473V29.464H.737A.737.737,0,0,0,0,30.2v1.228H27.5V30.2A.737.737,0,0,0,26.763,29.464ZM7.857,4.665a.737.737,0,0,1,.737-.737h2.455a.737.737,0,0,1,.737.737V7.121a.737.737,0,0,1-.737.737H8.594a.737.737,0,0,1-.737-.737Zm0,5.893a.737.737,0,0,1,.737-.737h2.455a.737.737,0,0,1,.737.737v2.455a.737.737,0,0,1-.737.737H8.594a.737.737,0,0,1-.737-.737Zm3.192,9.085H8.594a.737.737,0,0,1-.737-.737V16.451a.737.737,0,0,1,.737-.737h2.455a.737.737,0,0,1,.737.737v2.455A.737.737,0,0,1,11.049,19.643Zm4.665,9.821H11.786V24.308a.737.737,0,0,1,.737-.737h2.455a.737.737,0,0,1,.737.737Zm3.929-10.558a.737.737,0,0,1-.737.737H16.451a.737.737,0,0,1-.737-.737V16.451a.737.737,0,0,1,.737-.737h2.455a.737.737,0,0,1,.737.737Zm0-5.893a.737.737,0,0,1-.737.737H16.451a.737.737,0,0,1-.737-.737V10.558a.737.737,0,0,1,.737-.737h2.455a.737.737,0,0,1,.737.737Zm0-5.893a.737.737,0,0,1-.737.737H16.451a.737.737,0,0,1-.737-.737V4.665a.737.737,0,0,1,.737-.737h2.455a.737.737,0,0,1,.737.737Z" fill="#f7d667"/>
</svg>
