<svg xmlns="http://www.w3.org/2000/svg" width="37.5" height="29.167" viewBox="0 0 37.5 29.167">
  <path id="Icon_awesome-credit-card" data-name="Icon awesome-credit-card" d="M0,28.292a3.126,3.126,0,0,0,3.125,3.125h31.25A3.126,3.126,0,0,0,37.5,28.292V16.833H0Zm12.5-4.427a.784.784,0,0,1,.781-.781h8.854a.784.784,0,0,1,.781.781v2.6a.784.784,0,0,1-.781.781H13.281a.784.784,0,0,1-.781-.781Zm-8.333,0a.784.784,0,0,1,.781-.781H9.635a.784.784,0,0,1,.781.781v2.6a.784.784,0,0,1-.781.781H4.948a.784.784,0,0,1-.781-.781ZM37.5,5.375V8.5H0V5.375A3.126,3.126,0,0,1,3.125,2.25h31.25A3.126,3.126,0,0,1,37.5,5.375Z" transform="translate(0 -2.25)" fill="#fff"/>
</svg>
