<svg id="グループ_30796" data-name="グループ 30796" xmlns="http://www.w3.org/2000/svg" xmlns:xlink="http://www.w3.org/1999/xlink" width="30" height="27.788" viewBox="0 0 30 27.788">
  <defs>
    <clipPath id="clip-path">
      <rect id="長方形_7" data-name="長方形 7" width="30" height="27.788" fill="none" stroke="#000" stroke-width="1"/>
    </clipPath>
  </defs>
  <g id="グループ_30795" data-name="グループ 30795" clip-path="url(#clip-path)">
    <path id="パス_20" data-name="パス 20" d="M0,13.894a13.894,13.894,0,1,1,26.481,5.888l3.4,4.837a.663.663,0,0,1-.7,1.027l-5.966-1.436A13.9,13.9,0,0,1,0,13.894m1.328,0A12.574,12.574,0,0,0,22.564,23a.663.663,0,0,1,.615-.166l4.6,1.108L25.17,20.226a.663.663,0,0,1-.051-.679A12.568,12.568,0,1,0,1.328,13.894m17.522.044a1.592,1.592,0,1,1,.467,1.126,1.593,1.593,0,0,1-.467-1.126m-6.371,0a1.592,1.592,0,1,1,.467,1.126,1.593,1.593,0,0,1-.467-1.126m-6.372,0a1.592,1.592,0,1,1,.467,1.126,1.594,1.594,0,0,1-.467-1.126" stroke="#000" stroke-width="1"/>
  </g>
</svg>
