<svg xmlns="http://www.w3.org/2000/svg" width="40" height="32.004" viewBox="0 0 40 32.004">
  <path id="Icon_awesome-user-times" data-name="Icon awesome-user-times" d="M36.854,15l2.85-2.85a1.007,1.007,0,0,0,0-1.425L38.279,9.3a1.007,1.007,0,0,0-1.425,0L34,12.151,31.154,9.3a1.007,1.007,0,0,0-1.425,0L28.3,10.726a1.007,1.007,0,0,0,0,1.425L31.154,15l-2.85,2.85a1.007,1.007,0,0,0,0,1.425L29.728,20.7a1.007,1.007,0,0,0,1.425,0L34,17.852l2.85,2.85a1.007,1.007,0,0,0,1.425,0L39.7,19.277a1.007,1.007,0,0,0,0-1.425ZM14,16A8,8,0,1,0,6,8,8,8,0,0,0,14,16Zm5.6,2H18.558a10.881,10.881,0,0,1-9.114,0H8.4A8.4,8.4,0,0,0,0,26.4V29a3,3,0,0,0,3,3H25a3,3,0,0,0,3-3V26.4A8.4,8.4,0,0,0,19.6,18Z" fill="#f7d667"/>
</svg>
