<?xml version="1.0" encoding="UTF-8"?><svg xmlns="http://www.w3.org/2000/svg" viewBox="0 0 309.48 68.75"><defs><style>.d,.e{fill:#fff;}.e{fill-rule:evenodd;}</style></defs><g id="a"/><g id="b"><g id="c"><g><g><path class="e" d="M20.72,20.72c3.74-3.74,9.81-3.74,13.56,0,3.74,3.74,3.74,9.81,0,13.56-3.74,3.74-9.81,3.74-13.56,0-3.74-3.74-3.74-9.81,0-13.56h0Z"/><path class="e" d="M8.05,8.05c10.74-10.74,28.15-10.74,38.89,0,10.74,10.74,10.74,28.15,0,38.89l-6.78,6.78-8.96-8.96c3.22-.69,6.28-2.28,8.78-4.78,6.9-6.9,6.9-18.08,0-24.98-6.9-6.9-18.08-6.9-24.98,0-6.9,6.9-6.9,18.08,0,24.98l19.45,19.45-6.96,6.96L8.05,46.95C-2.68,36.21-2.68,18.79,8.05,8.05h0Z"/><path class="e" d="M39.99,15.01c6.9,6.9,6.9,18.08,0,24.98-2.5,2.5-5.56,4.09-8.78,4.78l8.96,8.96,6.78-6.78c4.75-4.75,7.4-10.82,7.95-17.03l-14.91-14.91Z"/><path class="e" d="M27.5,67.24c6.1,0,11.04,.34,11.04,.76s-4.94,.76-11.04,.76-11.04-.34-11.04-.76,4.94-.76,11.04-.76h0Z"/></g><path class="d" d="M146.26,63.8h-10.52c-.41,0-.71-.13-.89-.38-.18-.25-.25-.52-.22-.8,.03-.28,.12-.54,.27-.78l23.58-43.69h-22.64c-.41,0-.84-.16-1.29-.49-.44-.33-.67-.8-.67-1.42V7.1c0-.62,.22-1.09,.67-1.42,.44-.33,.87-.49,1.29-.49h42.09c.41,0,.7,.13,.87,.4,.16,.27,.22,.56,.18,.87-.04,.31-.13,.58-.24,.82l-14.7,27.13,14.7,27.44c.12,.24,.19,.5,.22,.78,.03,.28-.04,.55-.2,.8-.16,.25-.47,.38-.91,.38h-10.52c-.59,0-1.18-.22-1.75-.67-.58-.44-.97-.87-1.18-1.29l-7.5-14.16-7.64,14.16c-.24,.41-.64,.84-1.2,1.29-.56,.44-1.15,.67-1.78,.67Z"/><path class="d" d="M76.47,30.64h10.11c.83,0,1.12,.55,.88,1.65l-5.66,28.6c-.11,.32-.4,.68-.86,1.06-.47,.39-.97,.58-1.5,.58h-10.11c-.88,0-1.19-.55-.92-1.65l5.7-28.6c.08-.32,.36-.68,.84-1.06,.48-.39,.99-.58,1.52-.58Zm45.38-12.16v5.66c0,.54-.22,.96-.66,1.26-.44,.31-.85,.46-1.22,.46h-17.69V63.66c0,.37-.15,.76-.44,1.16-.29,.4-.72,.6-1.28,.6h-8.26c-.56,0-.99-.2-1.28-.6-.29-.4-.44-.79-.44-1.16V25.87h-19.46c-.38,0-.76-.15-1.16-.44-.4-.29-.6-.72-.6-1.28V15.88c0-.56,.2-.99,.6-1.28,.4-.29,.79-.44,1.16-.44h19.46V5.53c0-.37,.15-.78,.46-1.22,.31-.44,.73-.66,1.26-.66h8.26c.53,0,.96,.22,1.26,.66,.31,.44,.46,.85,.46,1.22V14.15h6.7v2.65c.16,.38,.46,.75,.9,1.12,.44,.38,.93,.56,1.46,.56h10.51Zm-5.54,12.16c.53,0,1.04,.19,1.52,.58,.48,.39,.76,.74,.84,1.06l5.66,28.6c.29,1.1,0,1.65-.88,1.65h-10.11c-.54,0-1.04-.19-1.52-.58s-.76-.74-.84-1.06l-5.7-28.6c-.19-1.1,.12-1.65,.92-1.65h10.11ZM124.69,.91c.75,0,1.34,.29,1.77,.86,.43,.58,.64,1.1,.64,1.58V14.83c0,.51-.21,1.04-.64,1.6-.43,.56-1.02,.84-1.77,.84h-12.28c-.75,0-1.34-.28-1.77-.84-.43-.56-.64-1.1-.64-1.6V3.36c0-.48,.21-1.01,.64-1.58s1.02-.86,1.77-.86h12.28Zm-4.65,6.62h-2.97c-.27,0-.48,.1-.62,.3-.15,.2-.22,.4-.22,.58v1.4c0,.16,.07,.34,.22,.54,.15,.2,.35,.3,.62,.3h2.97c.27,0,.47-.1,.62-.3s.22-.38,.22-.54v-1.4c0-.19-.07-.38-.22-.58-.15-.2-.35-.3-.62-.3Z"/><path class="d" d="M212.66,31.52c.16-.37,.29-.84,.4-1.4,.11-.56,.17-1.04,.2-1.44l.04-.56v-4.57h-22.27c-.38,0-.76-.15-1.16-.44-.4-.29-.6-.72-.6-1.28V13.55c0-.56,.2-.99,.6-1.28,.4-.29,.79-.44,1.16-.44h22.27V2.67c0-.35,.15-.72,.44-1.1,.29-.39,.71-.58,1.24-.58h9.71c.53,0,.94,.19,1.22,.58s.42,.76,.42,1.1V11.82h18.37c.37,0,.78,.15,1.22,.46s.66,.73,.66,1.26v8.26c0,.54-.22,.96-.66,1.26-.44,.31-.85,.46-1.22,.46h-18.37v4.57c-.08,1.44-.29,2.58-.64,3.41l-12.88,29.57c-.51,1.12-1.18,1.69-2.01,1.69h-9.75c-.54,0-.92-.21-1.14-.62-.23-.42-.27-.77-.14-1.06l12.88-29.57Z"/><path class="d" d="M267.59,39.75v11.31h33.58c.37,0,.76,.15,1.16,.44,.4,.29,.6,.72,.6,1.28v8.26c0,.56-.2,.99-.6,1.28-.4,.29-.79,.44-1.16,.44h-44.73c-.37,0-.78-.15-1.22-.44-.44-.29-.66-.72-.66-1.28V8.89c0-.37,.15-.78,.46-1.22,.31-.44,.73-.66,1.26-.66h9.59c.53,0,.96,.22,1.26,.66,.31,.44,.46,.85,.46,1.22V26.35l32.54-14.68c.27-.19,.61-.21,1.04-.08,.43,.13,.64,.46,.64,.96v10.11c0,.54-.19,1.02-.58,1.46-.39,.44-.76,.74-1.1,.9l-32.54,14.72Zm29.05-27.36h-6.14c-.51,0-.99-.19-1.44-.58-.46-.39-.76-.76-.92-1.1l-3.85-8.79c-.19-.27-.21-.61-.08-1.04,.13-.43,.45-.64,.96-.64h6.14c.54,0,1.03,.19,1.48,.56,.45,.38,.75,.75,.88,1.12l3.85,8.79c.19,.27,.22,.62,.1,1.04-.12,.43-.45,.64-.98,.64Zm11.8,0h-6.14c-.51,0-.99-.19-1.44-.58-.46-.39-.76-.76-.92-1.1l-3.85-8.79c-.19-.27-.21-.61-.08-1.04,.13-.43,.45-.64,.96-.64h6.14c.53,0,1.03,.19,1.48,.56,.45,.38,.75,.75,.88,1.12l3.85,8.79c.19,.27,.22,.62,.1,1.04-.12,.43-.45,.64-.98,.64Z"/></g></g></g></svg>