<?xml version="1.0" encoding="UTF-8"?><svg xmlns="http://www.w3.org/2000/svg" viewBox="0 0 314.05 92.14"><defs><style>.d,.e{fill:#f3a499;}.f,.g{fill:#ea5756;}.h,.i{fill:#91a0a8;}.e,.i,.j,.g{fill-rule:evenodd;}.j{fill:#f18d4d;}</style></defs><g id="a"/><g id="b"><g id="c"><g><g><path class="j" d="M24.16,34.17c4.37-4.37,11.44-4.37,15.81,0,4.37,4.37,4.37,11.44,0,15.81-4.37,4.37-11.44,4.37-15.81,0-4.37-4.37-4.37-11.44,0-15.81h0Z"/><path class="e" d="M9.39,19.4c12.52-12.52,32.83-12.52,45.35,0,12.52,12.52,12.52,32.83,0,45.35l-7.91,7.91-10.44-10.44c3.75-.8,7.32-2.66,10.24-5.57,8.04-8.04,8.04-21.08,0-29.12-8.04-8.04-21.08-8.04-29.12,0-8.04,8.04-8.04,21.08,0,29.12l22.67,22.68-8.11,8.11-22.67-22.68C-3.13,52.23-3.13,31.92,9.39,19.4h0Z"/><path class="g" d="M46.63,27.51c8.04,8.04,8.04,21.08,0,29.12-2.91,2.91-6.48,4.77-10.24,5.57l10.44,10.44,7.91-7.91c5.54-5.54,8.63-12.61,9.27-19.86l-17.38-17.38Z"/><path class="i" d="M32.07,88.41c7.11,0,12.87,.4,12.87,.88s-5.76,.88-12.87,.88-12.87-.4-12.87-.88,5.76-.88,12.87-.88h0Z"/></g><g><path class="h" d="M84.07,6.39h2.5v1.7h-2.52c-.17,3.17-1.32,4.44-3.21,5.45l-.71-1.54c1.59-.83,2.13-1.78,2.22-3.91h-2.94v-1.7h2.96v-1.57c-.63,.11-1.31,.16-2.08,.16l-.16-1.7c1.97-.08,3.48-.39,4.79-1.48l.93,1.42c-.57,.49-1.15,.85-1.78,1.12v2.06Z"/><path class="h" d="M91.32,12c2.61-1.23,3.34-2.99,3.54-5.1h-4.39v-1.7h6.16c0,4.28-1.2,6.96-4.58,8.35l-.72-1.54Zm5.01-9.35v1.7h-5.56v-1.7h5.56Z"/><path class="h" d="M103.53,7.24l-.96,1.4-2.35-1.59,.94-1.4,2.36,1.59Zm-2.54-3.18l.96-1.42,2.35,1.59-.94,1.42-2.36-1.59Zm.03,7.97c3.87-1.54,5.17-3.28,6.2-6.19l1.53,.74c-.98,3.28-3.15,5.57-6.93,6.96l-.8-1.51Z"/><path class="h" d="M117.89,11.45l.39,1.65c-4.96,1.89-7.95-2.69-3.43-6.27-.5-.16-1.1-.13-1.81,.02v-2.5h-1.4v-1.7h1.4v-.85h1.7v.85h1.39v1.7h-1.39v.74c.72,.08,1.31,.31,1.75,.66,.46-.24,.96-.47,1.51-.69l.61,1.59c-.39,.16-.74,.33-1.07,.49,.17,.36,.31,.77,.44,1.18l-1.53,.76c-.09-.41-.22-.76-.36-1.06-3.37,2.44-1.21,4.69,1.8,3.43Z"/><path class="h" d="M125.83,2.65h-.96v1.12h.96V13.54h-5.28V3.76h.96v-1.12h-.96V.94h5.28v1.7Zm-1.23,7.42v-.77c-.87-.05-1.29-.47-1.29-1.5v-2.33h-.22c0,1.95-.17,2.96-.9,3.83l-.41-.28v1.06h2.82Zm-2.82-4.6v2.8c.27-.5,.39-1.2,.39-2.8h-.39Zm2.82,6.38v-.8h-2.82v.8h2.82Zm-1.67-9.2v1.12h.52v-1.12h-.52Zm1.67,2.82h-.36v2.33c0,.39,.13,.54,.36,.57v-2.9Zm1.7-2.82V.94h4.8V7.24h-3.1v3.54c0,.82,.3,1.06,.88,1.06h2.22v1.7h-2.22c-1.73,0-2.58-.8-2.58-2.76V5.54h3.1V2.65h-3.1Z"/><path class="h" d="M132.86,8.06c9.13-4.05,9.61,4,3.67,4.69l-.31-1.67c3.68-.35,3.73-4.69-2.8-1.4l-.55-1.62Z"/><path class="h" d="M150.58,2.65l.08,1.7c-3.94,4.65-3.18,6.63-.5,7.67l-.76,1.53c-3.42-1.21-4.6-4.42-1.02-9.09l-4.14,.17-.08-1.7,6.42-.28Z"/><path class="h" d="M155.58,12.53c-2.08,0-2.2-.9-2.2-3.24V3.5h1.7v5.54c0,1.48,0,1.8,.5,1.8v1.7Zm7.31-9.04h-1.92v2.05h1.92v1.7h-1.92v2.06h1.57v1.7h-1.57c0,.93-.17,2.54-2.11,2.54-1.57,0-2.13-1.04-2.13-1.98,0-.99,.68-2.25,2.54-2.25v-2.06h-2.76v-1.7h2.76V3.5h-2.76V1.79h6.38v1.7Zm-3.54,7.43c-.68,0-.98,.17-.98,.54,0,.2,.13,.44,.47,.44,.47,0,.5-.38,.5-.98Z"/><path class="h" d="M171.99,13.07c-3.65,1.24-4.96,.08-4.96-4.09V1.79h1.7v7.18c0,2.99,.71,3.23,2.71,2.49l.55,1.61Z"/><path class="h" d="M177.13,9.01c0,1.48,.13,1.81,1.32,1.81v1.7c-2.47,0-3.02-.91-3.02-3.26V3.21h1.7v5.79Zm4.02-4.77c2.46,0,3.01,.9,3.01,3.26v5.02h-1.7V7.73c0-1.48-.13-1.79-1.31-1.79v-1.7Z"/><path class="h" d="M193.3,5.75c-5.89,3.32-3.75,7.48,0,5.67l.39,1.65c-4.82,1.94-7.57-2.39-4.3-6.33l-1.78-4.94h1.81l1.31,3.64c.52-.41,1.1-.8,1.76-1.18l.8,1.5Z"/><path class="h" d="M194.84,11.84l1.51-.79,1.31,2.49-1.51,.79-1.31-2.49Z"/><path class="h" d="M209.8,2.65h-.96v1.12h.96V13.54h-5.28V3.76h.96v-1.12h-.96V.94h5.28v1.7Zm-1.23,7.42v-.77c-.87-.05-1.29-.47-1.29-1.5v-2.33h-.22c0,1.95-.17,2.96-.9,3.83l-.41-.28v1.06h2.82Zm-2.82-4.6v2.8c.27-.5,.39-1.2,.39-2.8h-.39Zm2.82,6.38v-.8h-2.82v.8h2.82Zm-1.67-9.2v1.12h.52v-1.12h-.52Zm1.67,2.82h-.36v2.33c0,.39,.13,.54,.36,.57v-2.9Zm1.7-2.82V.94h4.8V7.24h-3.1v3.54c0,.82,.3,1.06,.88,1.06h2.22v1.7h-2.22c-1.73,0-2.58-.8-2.58-2.76V5.54h3.1V2.65h-3.1Z"/><path class="h" d="M219.2,5.67c0,1.48,0,1.79,.5,1.79v1.7c-2.08,0-2.2-.9-2.2-3.26V2.65h1.7v3.02Zm1.18,7.1s1.76-2.87,1.76-10.98h1.7c0,8.74-1.95,11.75-1.95,11.75l-1.51-.77Z"/><path class="h" d="M231.49,4.35h-1.89l-.5,7.24h-1.7l.49-7.24h-1.17v-1.7h1.29l.05-.85h1.72l-.06,.85h1.78v1.7Zm4.17,7.1l.46,1.64s-.38,.46-2.69,.46-3.26-.55-3.26-3.01h1.7c0,1.18,.31,1.31,1.8,1.31s2-.39,2-.39Zm-4.58-3.75v-1.7h4.13v1.7h-4.13Z"/><path class="h" d="M239.67,9.01c0,1.48,.13,1.81,1.32,1.81v1.7c-2.47,0-3.02-.91-3.02-3.26V3.21h1.7v5.79Zm4.02-4.77c2.46,0,3.01,.9,3.01,3.26v5.02h-1.7V7.73c0-1.48-.13-1.79-1.31-1.79v-1.7Z"/><path class="h" d="M255.73,11.45l.39,1.65c-4.96,1.89-7.95-2.69-3.43-6.27-.5-.16-1.1-.13-1.81,.02v-2.5h-1.4v-1.7h1.4v-.85h1.7v.85h1.39v1.7h-1.39v.74c.72,.08,1.31,.31,1.75,.66,.46-.24,.96-.47,1.51-.69l.61,1.59c-.39,.16-.74,.33-1.07,.49,.17,.36,.32,.77,.44,1.18l-1.53,.76c-.09-.41-.22-.76-.36-1.06-3.37,2.44-1.21,4.69,1.79,3.43Z"/><path class="h" d="M267.74,2.65c-.19,3.28-1.31,4.91-3.67,6.66l1.7,3.5-1.54,.74-3.01-6.22,1.54-.74,.55,1.17c1.39-1.04,2.09-2.02,2.46-3.4h-5.83v-1.7h7.79Z"/><path class="h" d="M272.78,3.92v3.13h-1.7V3.92h1.7Zm-.21,8.41c2.85-2.46,3.32-4.65,3.45-6.52h1.69c0,2.54-1.17,5.29-3.94,7.73l-1.2-1.21Zm2.55-5.27h-1.7V3.92h1.7v3.13Z"/><path class="h" d="M286.19,6.39h2.5v1.7h-2.52c-.17,3.17-1.32,4.44-3.21,5.45l-.71-1.54c1.59-.83,2.13-1.78,2.22-3.91h-2.94v-1.7h2.96v-1.57c-.63,.11-1.31,.16-2.08,.16l-.16-1.7c1.97-.08,3.48-.39,4.79-1.48l.93,1.42c-.57,.49-1.15,.85-1.78,1.12v2.06Z"/><path class="h" d="M295.2,5.18l-1.21,1.2-2.44-2.55,1.21-1.18,2.44,2.54Zm4.9,.16c-1.06,4.08-3.56,6.65-7.27,8.2l-.87-1.46c3.78-1.73,5.39-3.76,6.58-7.4l1.56,.66Z"/><path class="h" d="M306.16,1.79c0,.28,0,.57-.02,.85h3.61V7.24c0,3.8-2.05,5.62-4.33,6.3l-.71-1.54c2.2-.72,3.34-2.03,3.34-4.76v-2.9h-2.11c-.27,1.45-.79,2.74-1.64,3.81l-1.37-.99c1.12-1.46,1.53-3.24,1.53-5.37h1.7Zm2.16,.22V0h.98V2.02h-.98Zm1.43-2.02h.98V2.02h-.98V0Z"/></g><path class="d" d="M150.83,90.51h-10.52c-.41,0-.71-.13-.89-.38-.18-.25-.25-.52-.22-.8,.03-.28,.12-.54,.27-.78l23.58-43.69h-22.64c-.41,0-.84-.16-1.29-.49-.44-.33-.67-.8-.67-1.42v-9.15c0-.62,.22-1.09,.67-1.42,.44-.33,.87-.49,1.29-.49h42.09c.41,0,.7,.13,.87,.4,.16,.27,.22,.56,.18,.87-.04,.31-.13,.58-.24,.82l-14.7,27.13,14.7,27.44c.12,.24,.19,.5,.22,.78,.03,.28-.04,.55-.2,.8-.16,.25-.47,.38-.91,.38h-10.52c-.59,0-1.18-.22-1.75-.67-.58-.44-.97-.87-1.18-1.29l-7.5-14.16-7.64,14.16c-.24,.41-.64,.84-1.2,1.29-.56,.44-1.15,.67-1.78,.67Z"/><path class="d" d="M81.04,57.36h10.11c.83,0,1.12,.55,.88,1.65l-5.66,28.6c-.11,.32-.4,.68-.86,1.06-.47,.39-.97,.58-1.5,.58h-10.11c-.88,0-1.19-.55-.92-1.65l5.7-28.6c.08-.32,.36-.68,.84-1.06,.48-.39,.99-.58,1.52-.58Zm45.38-12.16v5.66c0,.54-.22,.96-.66,1.26-.44,.31-.85,.46-1.22,.46h-17.69v37.79c0,.37-.15,.76-.44,1.16-.29,.4-.72,.6-1.28,.6h-8.26c-.56,0-.99-.2-1.28-.6-.29-.4-.44-.79-.44-1.16V52.58h-19.46c-.38,0-.76-.15-1.16-.44-.4-.29-.6-.72-.6-1.28v-8.26c0-.56,.2-.99,.6-1.28,.4-.29,.79-.44,1.16-.44h19.46v-8.63c0-.37,.15-.78,.46-1.22,.31-.44,.73-.66,1.26-.66h8.26c.53,0,.96,.22,1.26,.66,.31,.44,.46,.85,.46,1.22v8.63h6.7v2.65c.16,.38,.46,.75,.9,1.12,.44,.38,.93,.56,1.46,.56h10.51Zm-5.54,12.16c.53,0,1.04,.19,1.52,.58,.48,.39,.76,.74,.84,1.06l5.66,28.6c.29,1.1,0,1.65-.88,1.65h-10.11c-.54,0-1.04-.19-1.52-.58s-.76-.74-.84-1.06l-5.7-28.6c-.19-1.1,.12-1.65,.92-1.65h10.11Zm8.38-29.73c.75,0,1.34,.29,1.77,.86,.43,.58,.64,1.1,.64,1.58v11.47c0,.51-.21,1.04-.64,1.6-.43,.56-1.02,.84-1.77,.84h-12.28c-.75,0-1.34-.28-1.77-.84-.43-.56-.64-1.1-.64-1.6v-11.47c0-.48,.21-1.01,.64-1.58s1.02-.86,1.77-.86h12.28Zm-4.65,6.62h-2.97c-.27,0-.48,.1-.62,.3-.15,.2-.22,.4-.22,.58v1.4c0,.16,.07,.34,.22,.54,.15,.2,.35,.3,.62,.3h2.97c.27,0,.47-.1,.62-.3s.22-.38,.22-.54v-1.4c0-.19-.07-.38-.22-.58-.15-.2-.35-.3-.62-.3Z"/><path class="f" d="M217.23,58.24c.16-.37,.29-.84,.4-1.4,.11-.56,.17-1.04,.2-1.44l.04-.56v-4.57h-22.27c-.38,0-.76-.15-1.16-.44-.4-.29-.6-.72-.6-1.28v-8.26c0-.56,.2-.99,.6-1.28,.4-.29,.79-.44,1.16-.44h22.27v-9.15c0-.35,.15-.72,.44-1.1,.29-.39,.71-.58,1.24-.58h9.71c.53,0,.94,.19,1.22,.58s.42,.76,.42,1.1v9.15h18.37c.37,0,.78,.15,1.22,.46s.66,.73,.66,1.26v8.26c0,.54-.22,.96-.66,1.26-.44,.31-.85,.46-1.22,.46h-18.37v4.57c-.08,1.44-.29,2.58-.64,3.41l-12.88,29.57c-.51,1.12-1.18,1.69-2.01,1.69h-9.75c-.54,0-.92-.21-1.14-.62-.23-.42-.27-.77-.14-1.06l12.88-29.57Z"/><path class="f" d="M272.15,66.46v11.31h33.58c.37,0,.76,.15,1.16,.44,.4,.29,.6,.72,.6,1.28v8.26c0,.56-.2,.99-.6,1.28-.4,.29-.79,.44-1.16,.44h-44.73c-.37,0-.78-.15-1.22-.44-.44-.29-.66-.72-.66-1.28V35.61c0-.37,.15-.78,.46-1.22,.31-.44,.73-.66,1.26-.66h9.59c.53,0,.96,.22,1.26,.66,.31,.44,.46,.85,.46,1.22v17.45l32.54-14.68c.27-.19,.61-.21,1.04-.08,.43,.13,.64,.46,.64,.96v10.11c0,.54-.19,1.02-.58,1.46-.39,.44-.76,.74-1.1,.9l-32.54,14.72Zm29.05-27.36h-6.14c-.51,0-.99-.19-1.44-.58-.46-.39-.76-.76-.92-1.1l-3.85-8.79c-.19-.27-.21-.61-.08-1.04,.13-.43,.45-.64,.96-.64h6.14c.54,0,1.03,.19,1.48,.56,.45,.38,.75,.75,.88,1.12l3.85,8.79c.19,.27,.22,.62,.1,1.04-.12,.43-.45,.64-.98,.64Zm11.8,0h-6.14c-.51,0-.99-.19-1.44-.58-.46-.39-.76-.76-.92-1.1l-3.85-8.79c-.19-.27-.21-.61-.08-1.04,.13-.43,.45-.64,.96-.64h6.14c.53,0,1.03,.19,1.48,.56,.45,.38,.75,.75,.88,1.12l3.85,8.79c.19,.27,.22,.62,.1,1.04-.12,.43-.45,.64-.98,.64Z"/></g></g></g></svg>