<svg xmlns="http://www.w3.org/2000/svg" width="27" height="21.096" viewBox="0 0 27 21.096">
  <path id="Icon_awesome-exchange-alt" data-name="Icon awesome-exchange-alt" d="M0,9.843V9A1.266,1.266,0,0,1,1.266,7.734H20.25V5.2a1.267,1.267,0,0,1,2.161-.895l4.219,4.219a1.266,1.266,0,0,1,0,1.79l-4.219,4.219a1.266,1.266,0,0,1-2.161-.895V11.109H1.266A1.266,1.266,0,0,1,0,9.843Zm25.734,8.016H6.75V15.328a1.267,1.267,0,0,0-2.161-.895L.371,18.651a1.266,1.266,0,0,0,0,1.79L4.589,24.66a1.266,1.266,0,0,0,2.161-.895V21.234H25.734A1.266,1.266,0,0,0,27,19.968v-.844A1.266,1.266,0,0,0,25.734,17.859Z" transform="translate(0 -3.936)" fill="#f7d667"/>
</svg>
