<svg xmlns="http://www.w3.org/2000/svg" width="28" height="16.8" viewBox="0 0 28 16.8">
  <path id="Icon_awesome-money-bill" data-name="Icon awesome-money-bill" d="M26.6,4.5H1.4A1.4,1.4,0,0,0,0,5.9v14a1.4,1.4,0,0,0,1.4,1.4H26.6A1.4,1.4,0,0,0,28,19.9V5.9A1.4,1.4,0,0,0,26.6,4.5ZM2.1,19.2V16.4a2.8,2.8,0,0,1,2.8,2.8Zm0-9.8V6.6H4.9A2.8,2.8,0,0,1,2.1,9.4ZM14,17.1c-1.933,0-3.5-1.881-3.5-4.2S12.067,8.7,14,8.7s3.5,1.88,3.5,4.2S15.932,17.1,14,17.1Zm11.9,2.1H23.1a2.8,2.8,0,0,1,2.8-2.8Zm0-9.8a2.8,2.8,0,0,1-2.8-2.8h2.8Z" transform="translate(0 -4.5)" fill="#242424"/>
</svg>
