<svg id="グループ_30819" data-name="グループ 30819" xmlns="http://www.w3.org/2000/svg" xmlns:xlink="http://www.w3.org/1999/xlink" width="30" height="31.526" viewBox="0 0 30 31.526">
  <defs>
    <clipPath id="clip-path">
      <rect id="長方形_50" data-name="長方形 50" width="30" height="31.526" fill="#242424"/>
    </clipPath>
  </defs>
  <g id="グループ_30818" data-name="グループ 30818" clip-path="url(#clip-path)">
    <path id="パス_31" data-name="パス 31" d="M7.37,5.116h0A1.119,1.119,0,0,1,6.251,4V1.119a1.119,1.119,0,0,1,2.238,0V4A1.119,1.119,0,0,1,7.37,5.116" transform="translate(-1.563 0)" fill="#242424"/>
    <path id="パス_32" data-name="パス 32" d="M31.884,5.116h0A1.119,1.119,0,0,1,30.765,4V1.119a1.119,1.119,0,0,1,2.238,0V4a1.119,1.119,0,0,1-1.119,1.119" transform="translate(-7.691 0)" fill="#242424"/>
    <path id="パス_33" data-name="パス 33" d="M30,5.425a2.46,2.46,0,0,0-2.458-2.458H26.066V4.739a1.874,1.874,0,1,1-3.748,0V2.967H7.681V4.739a1.874,1.874,0,1,1-3.748,0V2.967H2.457A2.46,2.46,0,0,0,0,5.425V29.811a2.46,2.46,0,0,0,2.457,2.457H27.542A2.46,2.46,0,0,0,30,29.811V5.425M28.112,29.811a.571.571,0,0,1-.57.57H2.457a.571.571,0,0,1-.57-.57V11.91H28.112Z" transform="translate(0 -0.742)" fill="#242424"/>
    <rect id="長方形_15" data-name="長方形 15" width="2.056" height="1.848" transform="translate(3.883 12.954)" fill="#242424"/>
    <rect id="長方形_16" data-name="長方形 16" width="2.057" height="1.848" transform="translate(7.246 12.954)" fill="#242424"/>
    <rect id="長方形_17" data-name="長方形 17" width="2.057" height="1.848" transform="translate(10.609 12.954)" fill="#242424"/>
    <rect id="長方形_18" data-name="長方形 18" width="2.057" height="1.848" transform="translate(13.972 12.954)" fill="#242424"/>
    <rect id="長方形_19" data-name="長方形 19" width="2.057" height="1.848" transform="translate(17.335 12.954)" fill="#242424"/>
    <rect id="長方形_20" data-name="長方形 20" width="2.057" height="1.848" transform="translate(20.698 12.954)" fill="#242424"/>
    <rect id="長方形_21" data-name="長方形 21" width="2.057" height="1.848" transform="translate(24.061 12.954)" fill="#242424"/>
    <rect id="長方形_22" data-name="長方形 22" width="2.056" height="1.848" transform="translate(3.883 16.291)" fill="#242424"/>
    <rect id="長方形_23" data-name="長方形 23" width="2.057" height="1.848" transform="translate(7.246 16.291)" fill="#242424"/>
    <rect id="長方形_24" data-name="長方形 24" width="2.057" height="1.848" transform="translate(10.609 16.291)" fill="#242424"/>
    <rect id="長方形_25" data-name="長方形 25" width="2.057" height="1.848" transform="translate(13.972 16.291)" fill="#242424"/>
    <rect id="長方形_26" data-name="長方形 26" width="2.057" height="1.848" transform="translate(17.335 16.291)" fill="#242424"/>
    <rect id="長方形_27" data-name="長方形 27" width="2.057" height="1.848" transform="translate(20.698 16.291)" fill="#242424"/>
    <rect id="長方形_28" data-name="長方形 28" width="2.057" height="1.848" transform="translate(24.061 16.291)" fill="#242424"/>
    <rect id="長方形_29" data-name="長方形 29" width="2.056" height="1.848" transform="translate(3.883 19.529)" fill="#242424"/>
    <rect id="長方形_30" data-name="長方形 30" width="2.057" height="1.848" transform="translate(7.246 19.529)" fill="#242424"/>
    <rect id="長方形_31" data-name="長方形 31" width="2.057" height="1.848" transform="translate(10.609 19.529)" fill="#242424"/>
    <rect id="長方形_32" data-name="長方形 32" width="2.057" height="1.848" transform="translate(13.972 19.529)" fill="#242424"/>
    <rect id="長方形_33" data-name="長方形 33" width="2.057" height="1.848" transform="translate(17.335 19.529)" fill="#242424"/>
    <rect id="長方形_34" data-name="長方形 34" width="2.057" height="1.848" transform="translate(20.698 19.529)" fill="#242424"/>
    <rect id="長方形_35" data-name="長方形 35" width="2.057" height="1.848" transform="translate(24.061 19.529)" fill="#242424"/>
    <rect id="長方形_36" data-name="長方形 36" width="2.056" height="1.848" transform="translate(3.883 22.767)" fill="#242424"/>
    <rect id="長方形_37" data-name="長方形 37" width="2.057" height="1.848" transform="translate(7.246 22.767)" fill="#242424"/>
    <rect id="長方形_38" data-name="長方形 38" width="2.057" height="1.848" transform="translate(10.609 22.767)" fill="#242424"/>
    <rect id="長方形_39" data-name="長方形 39" width="2.056" height="1.848" transform="translate(3.883 26.005)" fill="#242424"/>
    <rect id="長方形_40" data-name="長方形 40" width="2.057" height="1.848" transform="translate(7.246 26.005)" fill="#242424"/>
    <rect id="長方形_41" data-name="長方形 41" width="2.057" height="1.848" transform="translate(10.609 26.005)" fill="#242424"/>
    <rect id="長方形_42" data-name="長方形 42" width="2.057" height="1.848" transform="translate(13.972 22.767)" fill="#242424"/>
    <rect id="長方形_43" data-name="長方形 43" width="2.057" height="1.848" transform="translate(17.335 22.767)" fill="#242424"/>
    <rect id="長方形_44" data-name="長方形 44" width="2.057" height="1.848" transform="translate(20.698 22.767)" fill="#242424"/>
    <rect id="長方形_45" data-name="長方形 45" width="2.057" height="1.848" transform="translate(24.061 22.767)" fill="#242424"/>
    <rect id="長方形_46" data-name="長方形 46" width="2.057" height="1.848" transform="translate(13.972 26.005)" fill="#242424"/>
    <rect id="長方形_47" data-name="長方形 47" width="2.057" height="1.848" transform="translate(17.335 26.005)" fill="#242424"/>
    <rect id="長方形_48" data-name="長方形 48" width="2.057" height="1.848" transform="translate(20.698 26.005)" fill="#242424"/>
    <rect id="長方形_49" data-name="長方形 49" width="2.057" height="1.848" transform="translate(24.061 26.005)" fill="#242424"/>
  </g>
</svg>
