<svg xmlns="http://www.w3.org/2000/svg" width="27" height="21" viewBox="0 0 27 21">
  <path id="Icon_awesome-credit-card" data-name="Icon awesome-credit-card" d="M0,21a2.251,2.251,0,0,0,2.25,2.25h22.5A2.251,2.251,0,0,0,27,21V12.75H0Zm9-3.187a.564.564,0,0,1,.563-.563h6.375a.564.564,0,0,1,.563.563v1.875a.564.564,0,0,1-.563.563H9.563A.564.564,0,0,1,9,19.688Zm-6,0a.564.564,0,0,1,.563-.563H6.938a.564.564,0,0,1,.562.563v1.875a.564.564,0,0,1-.562.563H3.563A.564.564,0,0,1,3,19.688ZM27,4.5V6.75H0V4.5A2.251,2.251,0,0,1,2.25,2.25h22.5A2.251,2.251,0,0,1,27,4.5Z" transform="translate(0 -2.25)"/>
</svg>
