<svg id="グループ_31055" data-name="グループ 31055" xmlns="http://www.w3.org/2000/svg" xmlns:xlink="http://www.w3.org/1999/xlink" width="25" height="26.272" viewBox="0 0 25 26.272">
  <defs>
    <clipPath id="clip-path">
      <rect id="長方形_50" data-name="長方形 50" width="25" height="26.272" fill="#71b89e"/>
    </clipPath>
  </defs>
  <g id="グループ_30818" data-name="グループ 30818" clip-path="url(#clip-path)">
    <path id="パス_31" data-name="パス 31" d="M7.184,4.264h0a.933.933,0,0,1-.933-.933V.932a.933.933,0,0,1,1.865,0v2.4a.933.933,0,0,1-.932.933" transform="translate(-2.344 0)" fill="#71b89e"/>
    <path id="パス_32" data-name="パス 32" d="M31.7,4.264h0a.933.933,0,0,1-.932-.933V.932a.933.933,0,0,1,1.865,0v2.4a.933.933,0,0,1-.933.933" transform="translate(-11.537 0)" fill="#71b89e"/>
    <path id="パス_33" data-name="パス 33" d="M25,5.015a2.05,2.05,0,0,0-2.048-2.048h-1.23V4.444a1.562,1.562,0,1,1-3.124,0V2.967H6.4V4.444a1.562,1.562,0,1,1-3.124,0V2.967H2.047A2.05,2.05,0,0,0,0,5.015V25.337a2.05,2.05,0,0,0,2.047,2.048h20.9A2.05,2.05,0,0,0,25,25.337V5.015M23.427,25.337a.476.476,0,0,1-.475.475H2.047a.476.476,0,0,1-.475-.475V10.419H23.427Z" transform="translate(0 -1.113)" fill="#71b89e"/>
    <rect id="長方形_15" data-name="長方形 15" width="1.714" height="1.54" transform="translate(3.236 10.795)" fill="#71b89e"/>
    <rect id="長方形_16" data-name="長方形 16" width="1.714" height="1.54" transform="translate(6.038 10.795)" fill="#71b89e"/>
    <rect id="長方形_17" data-name="長方形 17" width="1.714" height="1.54" transform="translate(8.841 10.795)" fill="#71b89e"/>
    <rect id="長方形_18" data-name="長方形 18" width="1.714" height="1.54" transform="translate(11.643 10.795)" fill="#71b89e"/>
    <rect id="長方形_19" data-name="長方形 19" width="1.714" height="1.54" transform="translate(14.446 10.795)" fill="#71b89e"/>
    <rect id="長方形_20" data-name="長方形 20" width="1.714" height="1.54" transform="translate(17.248 10.795)" fill="#71b89e"/>
    <rect id="長方形_21" data-name="長方形 21" width="1.714" height="1.54" transform="translate(20.051 10.795)" fill="#71b89e"/>
    <rect id="長方形_22" data-name="長方形 22" width="1.714" height="1.54" transform="translate(3.236 13.576)" fill="#71b89e"/>
    <rect id="長方形_23" data-name="長方形 23" width="1.714" height="1.54" transform="translate(6.038 13.576)" fill="#71b89e"/>
    <rect id="長方形_24" data-name="長方形 24" width="1.714" height="1.54" transform="translate(8.841 13.576)" fill="#71b89e"/>
    <rect id="長方形_25" data-name="長方形 25" width="1.714" height="1.54" transform="translate(11.643 13.576)" fill="#71b89e"/>
    <rect id="長方形_26" data-name="長方形 26" width="1.714" height="1.54" transform="translate(14.446 13.576)" fill="#71b89e"/>
    <rect id="長方形_27" data-name="長方形 27" width="1.714" height="1.54" transform="translate(17.248 13.576)" fill="#71b89e"/>
    <rect id="長方形_28" data-name="長方形 28" width="1.714" height="1.54" transform="translate(20.051 13.576)" fill="#71b89e"/>
    <rect id="長方形_29" data-name="長方形 29" width="1.714" height="1.54" transform="translate(3.236 16.274)" fill="#71b89e"/>
    <rect id="長方形_30" data-name="長方形 30" width="1.714" height="1.54" transform="translate(6.038 16.274)" fill="#71b89e"/>
    <rect id="長方形_31" data-name="長方形 31" width="1.714" height="1.54" transform="translate(8.841 16.274)" fill="#71b89e"/>
    <rect id="長方形_32" data-name="長方形 32" width="1.714" height="1.54" transform="translate(11.643 16.274)" fill="#71b89e"/>
    <rect id="長方形_33" data-name="長方形 33" width="1.714" height="1.54" transform="translate(14.446 16.274)" fill="#71b89e"/>
    <rect id="長方形_34" data-name="長方形 34" width="1.714" height="1.54" transform="translate(17.248 16.274)" fill="#71b89e"/>
    <rect id="長方形_35" data-name="長方形 35" width="1.714" height="1.54" transform="translate(20.051 16.274)" fill="#71b89e"/>
    <rect id="長方形_36" data-name="長方形 36" width="1.714" height="1.54" transform="translate(3.236 18.972)" fill="#71b89e"/>
    <rect id="長方形_37" data-name="長方形 37" width="1.714" height="1.54" transform="translate(6.038 18.972)" fill="#71b89e"/>
    <rect id="長方形_38" data-name="長方形 38" width="1.714" height="1.54" transform="translate(8.841 18.972)" fill="#71b89e"/>
    <rect id="長方形_39" data-name="長方形 39" width="1.714" height="1.54" transform="translate(3.236 21.671)" fill="#71b89e"/>
    <rect id="長方形_40" data-name="長方形 40" width="1.714" height="1.54" transform="translate(6.038 21.671)" fill="#71b89e"/>
    <rect id="長方形_41" data-name="長方形 41" width="1.714" height="1.54" transform="translate(8.841 21.671)" fill="#71b89e"/>
    <rect id="長方形_42" data-name="長方形 42" width="1.714" height="1.54" transform="translate(11.643 18.972)" fill="#71b89e"/>
    <rect id="長方形_43" data-name="長方形 43" width="1.714" height="1.54" transform="translate(14.446 18.972)" fill="#71b89e"/>
    <rect id="長方形_44" data-name="長方形 44" width="1.714" height="1.54" transform="translate(17.248 18.972)" fill="#71b89e"/>
    <rect id="長方形_45" data-name="長方形 45" width="1.714" height="1.54" transform="translate(20.051 18.972)" fill="#71b89e"/>
    <rect id="長方形_46" data-name="長方形 46" width="1.714" height="1.54" transform="translate(11.643 21.671)" fill="#71b89e"/>
    <rect id="長方形_47" data-name="長方形 47" width="1.714" height="1.54" transform="translate(14.446 21.671)" fill="#71b89e"/>
    <rect id="長方形_48" data-name="長方形 48" width="1.714" height="1.54" transform="translate(17.248 21.671)" fill="#71b89e"/>
    <rect id="長方形_49" data-name="長方形 49" width="1.714" height="1.54" transform="translate(20.051 21.671)" fill="#71b89e"/>
  </g>
</svg>
