<svg xmlns="http://www.w3.org/2000/svg" width="32.5" height="21.667" viewBox="0 0 32.5 21.667">
  <path id="Icon_awesome-newspaper" data-name="Icon awesome-newspaper" d="M31.146,4.5H4.965A1.354,1.354,0,0,0,3.611,5.854v.451H1.354A1.354,1.354,0,0,0,0,7.66V23.007a3.16,3.16,0,0,0,3.16,3.16H29.792A2.708,2.708,0,0,0,32.5,23.458V5.854A1.354,1.354,0,0,0,31.146,4.5ZM3.16,23.458a.451.451,0,0,1-.451-.451V9.014h.9V23.007A.451.451,0,0,1,3.16,23.458Zm13.316-.9H7.9a.677.677,0,0,1-.677-.677v-.451A.677.677,0,0,1,7.9,20.75h8.576a.677.677,0,0,1,.677.677v.451A.677.677,0,0,1,16.476,22.556Zm11.736,0H19.635a.677.677,0,0,1-.677-.677v-.451a.677.677,0,0,1,.677-.677h8.576a.677.677,0,0,1,.677.677v.451A.677.677,0,0,1,28.212,22.556ZM16.476,17.139H7.9a.677.677,0,0,1-.677-.677V16.01a.677.677,0,0,1,.677-.677h8.576a.677.677,0,0,1,.677.677v.451A.677.677,0,0,1,16.476,17.139Zm11.736,0H19.635a.677.677,0,0,1-.677-.677V16.01a.677.677,0,0,1,.677-.677h8.576a.677.677,0,0,1,.677.677v.451A.677.677,0,0,1,28.212,17.139Zm0-5.417H7.9a.677.677,0,0,1-.677-.677V8.788A.677.677,0,0,1,7.9,8.111H28.212a.677.677,0,0,1,.677.677v2.257A.677.677,0,0,1,28.212,11.722Z" transform="translate(0 -4.5)" fill="#71b89e"/>
</svg>
