<svg xmlns="http://www.w3.org/2000/svg" width="10" height="26.668" viewBox="0 0 10 26.668">
  <g id="Icon_ionic-md-man" data-name="Icon ionic-md-man" transform="translate(-12.094 -2.25)">
    <path id="パス_68" data-name="パス 68" d="M18,7.5a2.623,2.623,0,1,0-2.623-2.623A2.614,2.614,0,0,0,18,7.5Z" transform="translate(-0.906)" fill="#71b89e"/>
    <path id="パス_69" data-name="パス 69" d="M19.32,8.086H14.868a2.786,2.786,0,0,0-2.774,2.762v6.483a.923.923,0,1,0,1.845,0V11.339H14.3v16.3a1.28,1.28,0,1,0,2.56,0V18.245h.476v9.4a1.28,1.28,0,0,0,2.56-.006v-16.3h.3v5.992a.952.952,0,0,0,1.9,0V10.848A2.793,2.793,0,0,0,19.32,8.086Z" transform="translate(0)" fill="#71b89e"/>
  </g>
</svg>
