<svg id="グループ_30800" data-name="グループ 30800" xmlns="http://www.w3.org/2000/svg" xmlns:xlink="http://www.w3.org/1999/xlink" width="30" height="29.395" viewBox="0 0 30 29.395">
  <defs>
    <clipPath id="clip-path">
      <rect id="長方形_9" data-name="長方形 9" width="30" height="29.395" fill="none" stroke="#71b89e" stroke-width="1"/>
    </clipPath>
  </defs>
  <g id="グループ_30799" data-name="グループ 30799" clip-path="url(#clip-path)">
    <path id="パス_23" data-name="パス 23" d="M.724,29.4A.725.725,0,0,1,0,28.671V.724A.725.725,0,0,1,.724,0H24.037a.725.725,0,0,1,.724.724v6.89l.592-.592a.724.724,0,0,1,1.024,0l3.411,3.41a.724.724,0,0,1,0,1.024l-5.027,5.026V28.671a.725.725,0,0,1-.724.724Zm.724-1.448H23.313V17.93l-4.926,4.926a.724.724,0,0,1-.284.18l-5.339,1.937a.724.724,0,0,1-.928-.927l1.934-5.334a.715.715,0,0,1,.127-.229l0,0v0c.016-.018.032-.036.05-.053l9.361-9.361V1.448H1.448Zm12.278-4.863,2.826-1.025-.9-.9-.9-.9Zm1.756-4.143,2.387,2.387L28.252,10.944,25.866,8.558Zm-8.825.02a.724.724,0,1,1,0-1.448h4.075a.724.724,0,0,1,0,1.448Zm0-5.662a.724.724,0,1,1,0-1.448h8.066a.724.724,0,1,1,0,1.448Zm0-5.662a.724.724,0,1,1,0-1.448H17.966a.724.724,0,1,1,0,1.448Z" fill="#71b89e" stroke="#71b89e" stroke-width="1"/>
  </g>
</svg>
