<svg id="グループ_30796" data-name="グループ 30796" xmlns="http://www.w3.org/2000/svg" xmlns:xlink="http://www.w3.org/1999/xlink" width="25" height="23.157" viewBox="0 0 25 23.157">
  <defs>
    <clipPath id="clip-path">
      <rect id="長方形_7" data-name="長方形 7" width="25" height="23.157" fill="none" stroke="#71b89e" stroke-width="1"/>
    </clipPath>
  </defs>
  <g id="グループ_30795" data-name="グループ 30795" clip-path="url(#clip-path)">
    <path id="パス_20" data-name="パス 20" d="M0,11.578a11.578,11.578,0,1,1,22.067,4.907l2.832,4.03a.553.553,0,0,1-.582.856l-4.972-1.2A11.586,11.586,0,0,1,0,11.578m1.106,0a10.478,10.478,0,0,0,17.7,7.589.553.553,0,0,1,.512-.138l3.837.923-2.177-3.1a.552.552,0,0,1-.042-.565A10.473,10.473,0,1,0,1.106,11.578m14.6.037a1.327,1.327,0,1,1,.389.939,1.327,1.327,0,0,1-.389-.939m-5.31,0a1.327,1.327,0,1,1,.389.939,1.327,1.327,0,0,1-.389-.939m-5.31,0a1.327,1.327,0,1,1,.389.939,1.328,1.328,0,0,1-.389-.939" fill="#71b89e" stroke="#71b89e" stroke-width="1"/>
  </g>
</svg>
