<svg xmlns="http://www.w3.org/2000/svg" width="35" height="35" viewBox="0 0 35 35">
  <path id="Icon_awesome-key" data-name="Icon awesome-key" d="M35,12.031A12.038,12.038,0,0,1,20.725,23.853L19.083,25.7a1.641,1.641,0,0,1-1.226.551H15.313v2.734a1.641,1.641,0,0,1-1.641,1.641H10.938v2.734A1.641,1.641,0,0,1,9.3,35H1.641A1.641,1.641,0,0,1,0,33.359V28.023a1.641,1.641,0,0,1,.48-1.16L11.541,15.8A12.032,12.032,0,1,1,35,12.031ZM22.969,8.75A3.281,3.281,0,1,0,26.25,5.469,3.281,3.281,0,0,0,22.969,8.75Z" fill="#71b89e"/>
</svg>
