<svg xmlns="http://www.w3.org/2000/svg" width="25" height="25" viewBox="0 0 25 25">
  <path id="Icon_ionic-ios-paper" data-name="Icon ionic-ios-paper" d="M7.942,5.3V24.649a.844.844,0,0,1-.841.841h0a.844.844,0,0,1-.841-.841V7.221H5.3A1.921,1.921,0,0,0,3.375,9.144V26.452A1.921,1.921,0,0,0,5.3,28.375h21.22a1.858,1.858,0,0,0,1.857-1.857V5.3a1.921,1.921,0,0,0-1.923-1.923L9.745,3.5A1.723,1.723,0,0,0,7.942,5.3Zm3.966,1.923h5.048a.844.844,0,0,1,.841.841h0a.844.844,0,0,1-.841.841H11.909a.844.844,0,0,1-.841-.841h0A.844.844,0,0,1,11.909,7.221Zm0,9.615H20.8a.844.844,0,0,1,.841.841h0a.844.844,0,0,1-.841.841H11.909a.844.844,0,0,1-.841-.841h0A.844.844,0,0,1,11.909,16.837Zm11.779,6.49H11.909a.844.844,0,0,1-.841-.841h0a.844.844,0,0,1,.841-.841H23.688a.844.844,0,0,1,.841.841h0A.844.844,0,0,1,23.688,23.327Zm0-9.615H11.909a.844.844,0,0,1-.841-.841h0a.844.844,0,0,1,.841-.841H23.688a.844.844,0,0,1,.841.841h0A.844.844,0,0,1,23.688,13.712Z" transform="translate(-3.375 -3.375)" fill="#71b89e"/>
</svg>
